<?xml version="1.0" encoding="UTF-8" standalone="no"?>
<!-- Created with Inkscape (http://www.inkscape.org/) -->

<svg
   xmlns:dc="http://purl.org/dc/elements/1.1/"
   xmlns:cc="http://creativecommons.org/ns#"
   xmlns:rdf="http://www.w3.org/1999/02/22-rdf-syntax-ns#"
   xmlns:svg="http://www.w3.org/2000/svg"
   xmlns="http://www.w3.org/2000/svg"
   xmlns:sodipodi="http://sodipodi.sourceforge.net/DTD/sodipodi-0.dtd"
   xmlns:inkscape="http://www.inkscape.org/namespaces/inkscape"
   width="86mm"
   height="86mm"
   viewBox="0 0 86 86"
   version="1.1"
   id="svg3760"
   inkscape:version="0.92.4 (unknown)"
   sodipodi:docname="energylogo.svg">
  <defs
     id="defs3754" />
  <sodipodi:namedview
     id="base"
     pagecolor="#ffffff"
     bordercolor="#666666"
     borderopacity="1.0"
     inkscape:pageopacity="0.0"
     inkscape:pageshadow="2"
     inkscape:zoom="0.98994949"
     inkscape:cx="122.26542"
     inkscape:cy="112.59879"
     inkscape:document-units="mm"
     inkscape:current-layer="layer1"
     showgrid="false"
     fit-margin-top="0"
     fit-margin-left="0"
     fit-margin-right="0"
     fit-margin-bottom="0"
     inkscape:window-width="1920"
     inkscape:window-height="1013"
     inkscape:window-x="0"
     inkscape:window-y="1080"
     inkscape:window-maximized="1" />
  <metadata
     id="metadata3757">
    <rdf:RDF>
      <cc:Work
         rdf:about="">
        <dc:format>image/svg+xml</dc:format>
        <dc:type
           rdf:resource="http://purl.org/dc/dcmitype/StillImage" />
        <dc:title></dc:title>
      </cc:Work>
    </rdf:RDF>
  </metadata>
  <g
     inkscape:label="Layer 1"
     inkscape:groupmode="layer"
     id="layer1"
     transform="translate(-62.166562,-70.541975)">
    <path
       inkscape:connector-curvature="0"
       id="path3777"
       d="m 99.057752,155.94845 c -1.981313,-0.31477 -4.134651,-0.77749 -5.027083,-1.08024 -0.436562,-0.1481 -1.27,-0.38449 -1.852083,-0.52531 -0.582084,-0.14083 -1.322036,-0.42798 -1.644338,-0.63812 -0.322302,-0.21014 -0.873271,-0.38207 -1.224373,-0.38207 -0.351104,0 -0.776896,-0.16691 -0.946203,-0.37091 -0.169309,-0.20401 -0.598749,-0.44395 -0.954312,-0.53318 -1.181071,-0.29644 -6.044046,-3.2642 -8.51312,-5.19538 -4.105483,-3.21108 -6.901399,-6.25804 -9.480339,-10.33156 -0.681616,-1.07664 -1.459292,-2.273 -1.728169,-2.65858 -0.268876,-0.38559 -0.565345,-1.00578 -0.65882,-1.37821 -0.09347,-0.37243 -0.336865,-0.81567 -0.540869,-0.98498 -0.204004,-0.16931 -0.370916,-0.5168 -0.370916,-0.77221 0,-0.2554 -0.17094,-0.60624 -0.379868,-0.77963 -0.208927,-0.1734 -0.454659,-0.69399 -0.546071,-1.15688 -0.09141,-0.46289 -0.324422,-1.1988 -0.517801,-1.63536 -0.455162,-1.02755 -0.886372,-2.68733 -1.340404,-5.15938 -0.200455,-1.0914 -0.489464,-2.40031 -0.642243,-2.90867 -0.414364,-1.37877 -0.34584,-10.38603 0.09361,-12.30487 0.199962,-0.87312 0.444306,-2.1576 0.542986,-2.85439 0.09868,-0.69679 0.350032,-1.67523 0.558562,-2.17431 0.20853,-0.49909 0.382933,-1.23867 0.387561,-1.64353 0.0046,-0.40486 0.183221,-0.967216 0.396875,-1.249686 0.213653,-0.28248 0.38846,-0.68615 0.38846,-0.89706 0,-0.3524 0.806829,-2.27722 1.349544,-3.21956 0.125713,-0.21828 0.557591,-1.05172 0.95973,-1.85208 0.402138,-0.80037 0.972017,-1.8124 1.266395,-2.24896 2.536335,-3.76137 4.012714,-5.62689 6.072374,-7.67292 2.390995,-2.37516 6.747199,-5.95312 7.248,-5.95312 0.145243,0 0.44495,-0.18087 0.666017,-0.40194 0.447847,-0.44785 5.370317,-2.963823 6.471536,-3.307735 0.387721,-0.121086 1.715998,-0.5861 2.951729,-1.033366 1.235731,-0.447266 2.581095,-0.81321 2.989702,-0.81321 0.408604,0 1.123958,-0.206052 1.589675,-0.457894 0.747125,-0.404017 1.749573,-0.458101 8.519674,-0.459648 5.81453,-0.0013 7.82059,0.08166 8.28264,0.342625 0.33535,0.189409 1.30515,0.456374 2.15511,0.593256 0.84995,0.136881 1.88527,0.426144 2.30069,0.642805 0.41542,0.216661 1.01617,0.394663 1.33501,0.395559 0.31883,9e-4 0.64762,0.111533 0.73064,0.245857 0.083,0.134325 0.53179,0.327877 0.99728,0.430115 0.46548,0.102238 1.26779,0.393597 1.7829,0.647464 0.51511,0.253867 1.41281,0.688947 1.9949,0.966845 3.95591,1.888627 9.5549,6.314077 13.05595,10.319447 1.22478,1.40121 4.87176,6.73422 5.31761,7.776 0.15306,0.35765 0.38007,0.82887 0.50446,1.04715 0.12439,0.21828 0.49655,0.99219 0.82701,1.71979 0.33047,0.72761 0.76477,1.65999 0.9651,2.07196 0.20033,0.41198 0.36424,0.91024 0.36424,1.10726 0,0.19701 0.14116,0.693378 0.31368,1.103036 0.17253,0.40965 0.46132,1.39967 0.64177,2.20003 0.18045,0.80037 0.45065,1.93146 0.60044,2.51354 0.80563,3.13057 0.80879,12.90798 0.005,16.53646 -0.77818,3.5144 -1.75914,6.91832 -2.08874,7.24792 -0.14644,0.14644 -0.26625,0.48674 -0.26625,0.75623 0,0.26948 -0.23222,0.93028 -0.51605,1.46843 -0.28383,0.53816 -0.58716,1.15706 -0.67408,1.37534 -0.15284,0.38385 -0.47135,0.93183 -2.08087,3.58004 -2.44985,4.03086 -7.25854,9.22196 -11.1347,12.0202 -1.21721,0.87872 -2.30427,1.59768 -2.41569,1.59768 -0.11141,0 -0.39574,0.17481 -0.63184,0.38848 -0.54956,0.49735 -6.11943,3.3117 -6.55866,3.31398 -0.18243,0.001 -0.77598,0.23984 -1.319,0.53088 -0.54302,0.29104 -1.1934,0.52917 -1.44528,0.52917 -0.25188,0 -0.84895,0.16715 -1.32683,0.37145 -0.47788,0.2043 -1.64278,0.50533 -2.58866,0.66895 -0.94589,0.16361 -2.31511,0.40449 -3.04271,0.53527 -1.60926,0.28924 -10.33544,0.28332 -12.170838,-0.008 z m 7.023518,-14.33356 c 10.08656,-7.68717 9.87599,-7.49951 9.35182,-8.33437 -0.23303,-0.37116 -0.79295,-0.48927 -2.82212,-0.59532 -1.39227,-0.0728 -2.61122,-0.21267 -2.70879,-0.31092 -0.16694,-0.16812 0.13976,-1.37222 0.72954,-2.86408 0.14382,-0.3638 0.78873,-2.2688 1.43312,-4.23333 0.6444,-1.96453 1.34494,-3.94706 1.55675,-4.40561 0.21182,-0.45856 0.38512,-1.05846 0.38512,-1.33312 0,-0.27466 0.23813,-0.96645 0.52917,-1.53731 0.29104,-0.57086 0.52916,-1.2866 0.52916,-1.59053 0,-0.30393 0.10957,-0.66571 0.24347,-0.80395 0.23579,-0.24342 1.12977,-2.60043 1.60063,-4.22011 0.12692,-0.43656 0.53947,-1.62718 0.9168,-2.64583 0.37732,-1.01864 1.17011,-3.34036 1.76174,-5.15937 0.59164,-1.81901 1.24483,-3.698288 1.45154,-4.176166 0.2067,-0.47788 0.37582,-1.31727 0.37582,-1.86531 0,-1.67488 -0.8217,-2.03433 -2.59341,-1.13448 -1.14409,0.58107 -2.82568,1.35595 -4.68263,2.15776 -0.7276,0.31417 -1.6801,0.72932 -2.11666,0.92257 -0.43657,0.193228 -1.4486,0.613666 -2.24896,0.934296 -1.9597,0.78506 -4.67744,2.00767 -5.87325,2.64216 -0.87586,0.46473 -2.06425,0.69964 -2.06425,0.40805 0,-0.0905 4.3514,-7.545066 6.48229,-11.105106 0.29104,-0.48624 1.00542,-1.70289 1.5875,-2.70366 0.58208,-1.00077 1.1774,-2.01253 1.32292,-2.24835 1.6641,-2.69669 2.04856,-3.73681 1.7102,-4.62677 l -0.2419,-0.63624 h -5.77762 -5.77763 l -0.53176,0.7276 c -0.702982,0.96187 -3.148621,6.23023 -4.697981,10.12031 -0.08694,0.21828 -0.260316,0.57547 -0.385284,0.79375 -0.12497,0.21828 -0.470392,0.93266 -0.767609,1.5875 -0.297214,0.65485 -0.96184,2.0836 -1.476946,3.175 -1.478143,3.131896 -2.823266,6.087306 -2.823266,6.203086 0,0.0583 -0.595312,1.3746 -1.322917,2.92504 -0.727604,1.55043 -1.326639,2.89908 -1.33119,2.99699 -0.0046,0.0979 -0.30112,0.77332 -0.65904,1.50092 -0.35792,0.72761 -0.651854,1.46183 -0.653185,1.6316 -0.0013,0.16977 -0.120586,0.34837 -0.265012,0.39688 -0.427093,0.14344 -1.023543,2.79726 -0.701148,3.11966 0.402532,0.40253 2.071682,0.32153 2.667958,-0.12947 0.282474,-0.21365 0.736785,-0.38846 1.009581,-0.38846 0.272796,0 0.756055,-0.1436 1.073909,-0.31912 0.624634,-0.34491 2.737909,-1.15015 4.017502,-1.53083 0.947701,-0.28194 3.152881,-1.0739 5.159375,-1.85292 0.800363,-0.31075 1.931463,-0.72501 2.513543,-0.92059 0.58208,-0.19558 1.71318,-0.61641 2.51354,-0.9352 1.87102,-0.74521 2.64583,-0.91824 2.64583,-0.59086 0,0.14418 -0.17859,0.76835 -0.39687,1.38702 -0.21828,0.61868 -0.39687,1.62407 -0.39687,2.23421 0,0.61013 -0.18109,1.71912 -0.40242,2.46441 -0.22133,0.7453 -0.50823,2.28496 -0.63756,3.42146 -0.12933,1.13651 -0.36212,2.54263 -0.51731,3.12471 -0.1552,0.58209 -0.28501,1.62771 -0.28848,2.32361 -0.004,0.69589 -0.18491,1.6927 -0.40319,2.21512 -0.21828,0.52242 -0.3987,1.26274 -0.40093,1.64515 -0.008,1.37566 -0.33291,1.45291 -1.86555,0.44355 -0.78409,-0.51639 -1.74118,-0.93888 -2.126864,-0.93888 -1.240857,0 -1.362382,0.45143 -0.937395,3.48222 0.210968,1.50452 0.511582,3.21173 0.668033,3.79382 0.156448,0.58208 0.287292,1.56817 0.290764,2.19131 0.0035,0.62313 0.184906,1.56041 0.403192,2.08283 0.21828,0.52242 0.39687,1.30033 0.39687,1.72869 0,1.26616 0.4321,1.80238 1.4524,1.80238 0.73312,0 1.5134,-0.46397 4.11591,-2.4474 z"
       style="fill:#43b077;stroke-width:0.26458332" />
  </g>
</svg>
